<svg width="568" height="80" viewBox="0 0 568 80" fill="none" xmlns="http://www.w3.org/2000/svg">
<path d="M20.5 73V7H35.5V73H20.5Z" fill="black"/>
<path d="M544.955 22.3073C546.965 17.4543 548 12.2529 548 7H533.75C533.75 10.3816 533.084 13.73 531.79 16.8541C530.496 19.9783 528.599 22.817 526.208 25.2081C523.817 27.5992 520.978 29.4959 517.854 30.79C514.73 32.0841 511.382 32.7501 508 32.7501V47.2499C511.382 47.2499 514.73 47.9159 517.854 49.21C520.978 50.5041 523.817 52.4008 526.208 54.7919C528.599 57.183 530.496 60.0217 531.79 63.1459C533.084 66.27 533.75 69.6184 533.75 73H548C548 67.7471 546.965 62.5457 544.955 57.6927C542.945 52.8396 539.999 48.4301 536.284 44.7157C534.536 42.9679 532.635 41.3902 530.605 40C532.635 38.6098 534.536 37.0321 536.284 35.2843C539.999 31.5699 542.945 27.1604 544.955 22.3073Z" fill="black"/>
<path d="M427.554 62.868C422.388 62.868 418.275 61.38 415.216 58.404C412.158 55.3867 410.628 51.0053 410.628 45.26V35.34C410.628 29.5947 412.158 25.234 415.216 22.258C418.275 19.2407 422.388 17.732 427.554 17.732C432.68 17.732 436.606 19.158 439.334 22.01C442.104 24.862 443.488 28.768 443.488 33.728V34.038H438.342V33.542C438.342 30.2767 437.454 27.6107 435.676 25.544C433.94 23.436 431.233 22.382 427.554 22.382C423.876 22.382 421.003 23.5187 418.936 25.792C416.87 28.024 415.836 31.1653 415.836 35.216V45.384C415.836 49.4347 416.87 52.5967 418.936 54.87C421.003 57.102 423.876 58.218 427.554 58.218C431.233 58.218 433.94 57.1847 435.676 55.118C437.454 53.01 438.342 50.3233 438.342 47.058V46.066H443.488V46.872C443.488 51.832 442.104 55.738 439.334 58.59C436.606 61.442 432.68 62.868 427.554 62.868Z" fill="black"/>
<path d="M55.96 18.6V62H61.168V42.718H62.036L80.946 62H88.076L66.19 40.052L87.332 18.6H80.388L62.036 37.51H61.168V18.6H55.96Z" fill="black"/>
<path fill-rule="evenodd" clip-rule="evenodd" d="M108.784 18.6L95.3918 62H100.786L104.134 51.026H122.61L125.958 62H131.352L117.96 18.6H108.784ZM121.246 46.314H105.436L112.938 21.762H113.806L121.246 46.314Z" fill="black"/>
<path d="M142.855 62V18.6H152.775L164.307 58.714H165.113L176.645 18.6H186.565V62H181.543V22.01H180.675L169.205 62H160.215L148.745 22.01H147.877V62H142.855Z" fill="black"/>
<path d="M198.089 18.6L211.171 62H220.285L233.367 18.6H227.973L216.131 58.838H215.325L203.483 18.6H198.089Z" fill="black"/>
<path d="M244.886 62V18.6H250.094V62H244.886Z" fill="black"/>
<path d="M265.022 18.6V62H270.168V21.824H271.036L286.102 62H296.208V18.6H291.062V58.714H290.256L275.128 18.6H265.022Z" fill="black"/>
<path d="M341.147 62V23.312H327.197V18.6H360.305V23.312H346.355V62H341.147Z" fill="black"/>
<path d="M371.933 18.6V62H398.965V57.288H377.141V42.532H396.919V37.82H377.141V23.312H398.655V18.6H371.933Z" fill="black"/>
<path d="M456.647 18.6V62H461.855V42.594H482.191V62H487.4V18.6H482.191V37.882H461.855V18.6H456.647Z" fill="black"/>
</svg>
